<svg class="animated-svg" width="1440" height="900" viewBox="0 0 1440 900" fill="none" xmlns="http://www.w3.org/2000/svg">
  <g class="svg-lines" opacity=".16" clip-path="url(#a)" stroke="#CBFC2A" stroke-width="3.5">
    <path d="m-18.227 0 54.684 60.75M91.14 0 36.458 60.75M91.14 0l54.684 60.75M200.508 0l-54.684 60.75M255.191 0l-54.683 60.75M309.875 0l-54.684 60.75M364.559 0l-54.684 60.75M364.559 0l54.683 60.75M473.926 0l-54.684 60.75M473.926 0l54.683 60.75M583.293 0l-54.684 60.75M637.977 0l-54.684 60.75M692.66 0l-54.683 60.75M692.66 0l54.684 60.75m0-60.75 54.683 60.75M856.711 0l-54.684 60.75M856.711 0l54.683 60.75M911.395 0l54.683 60.75m0-60.75 54.682 60.75m0-60.75 54.69 60.75m0-60.75 54.68 60.75m0-60.75 54.68 60.75M1239.49 0l-54.68 60.75M1239.49 0l54.69 60.75m0-60.75 54.68 60.75m0-60.75 54.68 60.75M1458.23 0l-54.69 60.75"/>
    <path opacity=".94" d="m-18.227 60.75 54.684 60.75M91.14 60.75 36.458 121.5M91.14 60.75l54.684 60.75m54.684-60.75-54.684 60.75m54.684-60.75 54.683 60.75m0-60.75 54.684 60.75m54.684-60.75-54.684 60.75m109.367-60.75-54.683 60.75m109.367-60.75-54.684 60.75m54.684-60.75 54.683 60.75m0-60.75 54.684 60.75m0-60.75 54.684 60.75m54.683-60.75-54.683 60.75m109.367-60.75L692.66 121.5m54.684-60.75 54.683 60.75m54.684-60.75-54.684 60.75m109.367-60.75-54.683 60.75m54.684-60.75 54.683 60.75m54.682-60.75-54.682 60.75m109.372-60.75-54.69 60.75m54.69-60.75 54.68 60.75m0-60.75 54.68 60.75m54.68-60.75-54.68 60.75m54.68-60.75 54.69 60.75m54.68-60.75-54.68 60.75m54.68-60.75 54.68 60.75m54.69-60.75-54.69 60.75"/>
    <path opacity=".87" d="m36.457 121.5-54.684 60.75m54.684-60.75 54.684 60.75m54.683-60.75L91.14 182.25m54.684-60.75 54.684 60.75m54.683-60.75-54.683 60.75m109.367-60.75-54.684 60.75m54.684-60.75 54.684 60.75m54.683-60.75-54.683 60.75m109.367-60.75-54.684 60.75m54.684-60.75 54.683 60.75m54.684-60.75-54.684 60.75m109.368-60.75-54.684 60.75M692.66 121.5l-54.683 60.75m109.367-60.75-54.684 60.75m109.367-60.75-54.683 60.75m54.683-60.75 54.684 60.75m0-60.75 54.683 60.75m54.684-60.75-54.683 60.75m54.683-60.75 54.682 60.75m54.69-60.75-54.69 60.75m109.37-60.75-54.68 60.75m109.36-60.75-54.68 60.75m54.68-60.75 54.68 60.75m0-60.75 54.69 60.75m0-60.75 54.68 60.75m0-60.75 54.68 60.75m54.69-60.75-54.69 60.75"/>
    <path opacity=".81" d="M-18.227 182.25 36.457 243m54.683-60.75L36.458 243m54.682-60.75L145.825 243m54.683-60.75L145.824 243m109.367-60.75L200.508 243m54.683-60.75L309.875 243m0-60.75L364.559 243m0-60.75L419.242 243m54.684-60.75L419.242 243m54.684-60.75L528.609 243m54.684-60.75L528.609 243m54.684-60.75L637.977 243m0-60.75L692.66 243m0-60.75L747.344 243m54.683-60.75L747.344 243m109.367-60.75L802.027 243m54.684-60.75L911.394 243m.001-60.75L966.078 243m0-60.75L1020.76 243m54.69-60.75L1020.76 243m109.37-60.75L1075.45 243m109.36-60.75L1130.13 243m54.68-60.75 54.68 60.75m54.69-60.75L1239.49 243m54.69-60.75 54.68 60.75m0-60.75 54.68 60.75m54.69-60.75L1403.54 243"/>
    <path opacity=".74" d="m-18.227 243 54.684 60.75m0-60.75 54.684 60.75M91.14 243l54.684 60.75M200.508 243l-54.684 60.75M255.191 243l-54.683 60.75M255.191 243l54.684 60.75m0-60.75 54.684 60.75M419.242 243l-54.683 60.75M419.242 243l54.684 60.75m0-60.75 54.683 60.75M583.293 243l-54.684 60.75M637.977 243l-54.684 60.75M692.66 243l-54.683 60.75M692.66 243l54.684 60.75M802.027 243l-54.683 60.75M856.711 243l-54.684 60.75M856.711 243l54.683 60.75m.001-60.75 54.683 60.75M1020.76 243l-54.682 60.75M1020.76 243l54.69 60.75m0-60.75 54.68 60.75m0-60.75 54.68 60.75m54.68-60.75-54.68 60.75M1294.18 243l-54.69 60.75m54.69-60.75 54.68 60.75m54.68-60.75-54.68 60.75M1458.23 243l-54.69 60.75"/>
    <path opacity=".68" d="m36.457 303.75-54.684 60.75M91.14 303.75 36.458 364.5m54.682-60.75 54.684 60.75m54.684-60.75-54.684 60.75m54.684-60.75 54.683 60.75m0-60.75 54.684 60.75m0-60.75 54.684 60.75m54.683-60.75-54.683 60.75m54.683-60.75 54.684 60.75m54.683-60.75-54.683 60.75m109.367-60.75-54.684 60.75m109.368-60.75-54.684 60.75m109.367-60.75-54.683 60.75m109.367-60.75L692.66 364.5m54.684-60.75 54.683 60.75m54.684-60.75-54.684 60.75m54.684-60.75 54.683 60.75m54.684-60.75-54.683 60.75m109.365-60.75-54.682 60.75m54.682-60.75 54.69 60.75m0-60.75 54.68 60.75m54.68-60.75-54.68 60.75m109.36-60.75-54.68 60.75m54.68-60.75 54.69 60.75m0-60.75 54.68 60.75m54.68-60.75-54.68 60.75m109.37-60.75-54.69 60.75"/>
    <path opacity=".62" d="m-18.227 364.5 54.684 60.75m0-60.75 54.684 60.75m54.683-60.75L91.14 425.25m54.684-60.75 54.684 60.75m0-60.75 54.683 60.75m54.684-60.75-54.684 60.75m109.368-60.75-54.684 60.75m54.684-60.75 54.683 60.75m0-60.75 54.684 60.75m54.683-60.75-54.683 60.75m109.367-60.75-54.684 60.75m54.684-60.75 54.684 60.75m54.683-60.75-54.683 60.75m54.683-60.75 54.684 60.75m54.683-60.75-54.683 60.75m109.367-60.75-54.684 60.75m109.367-60.75-54.683 60.75m109.367-60.75-54.683 60.75m109.365-60.75-54.682 60.75m54.682-60.75 54.69 60.75m54.68-60.75-54.68 60.75m54.68-60.75 54.68 60.75m0-60.75 54.68 60.75m54.69-60.75-54.69 60.75m109.37-60.75-54.68 60.75m54.68-60.75 54.68 60.75m0-60.75 54.69 60.75"/>
    <path opacity=".55" d="M36.457 425.25-18.227 486M91.14 425.25 36.458 486m54.682-60.75L145.825 486m-.001-60.75L200.508 486m0-60.75L255.191 486m54.684-60.75L255.191 486m109.368-60.75L309.875 486m109.367-60.75L364.559 486m109.367-60.75L419.242 486m109.367-60.75L473.926 486m54.683-60.75L583.293 486m0-60.75L637.977 486m0-60.75L692.66 486m0-60.75L747.344 486m0-60.75L802.027 486m54.684-60.75L802.027 486m54.684-60.75L911.394 486m54.684-60.75L911.395 486m54.683-60.75L1020.76 486m0-60.75 54.69 60.75m0-60.75 54.68 60.75m0-60.75 54.68 60.75m54.68-60.75L1184.81 486m54.68-60.75 54.69 60.75m54.68-60.75L1294.18 486m54.68-60.75 54.68 60.75m54.69-60.75L1403.54 486"/>
    <path opacity=".49" d="m36.457 486-54.684 60.75M36.457 486l54.684 60.75M145.824 486 91.14 546.75M145.824 486l54.684 60.75m0-60.75 54.683 60.75m0-60.75 54.684 60.75m0-60.75 54.684 60.75M419.242 486l-54.683 60.75M419.242 486l54.684 60.75m0-60.75 54.683 60.75m0-60.75 54.684 60.75M637.977 486l-54.684 60.75M637.977 486l54.683 60.75M747.344 486l-54.684 60.75M747.344 486l54.683 60.75m0-60.75 54.684 60.75m0-60.75 54.683 60.75m.001-60.75 54.683 60.75m0-60.75 54.682 60.75m54.69-60.75-54.69 60.75m54.69-60.75 54.68 60.75m0-60.75 54.68 60.75m0-60.75 54.68 60.75m54.69-60.75-54.69 60.75m54.69-60.75 54.68 60.75m54.68-60.75-54.68 60.75M1458.23 486l-54.69 60.75"/>
    <path opacity=".42" d="m-18.227 546.75 54.684 60.75m0-60.75 54.684 60.75m54.683-60.75L91.14 607.5m54.684-60.75 54.684 60.75m0-60.75 54.683 60.75m54.684-60.75-54.684 60.75m109.368-60.75-54.684 60.75m54.684-60.75 54.683 60.75m0-60.75 54.684 60.75m0-60.75 54.683 60.75m54.684-60.75-54.684 60.75m109.368-60.75-54.684 60.75m54.684-60.75 54.683 60.75m0-60.75 54.684 60.75m0-60.75 54.683 60.75m54.684-60.75-54.684 60.75m54.684-60.75 54.683 60.75m.001-60.75 54.683 60.75m0-60.75 54.682 60.75m54.69-60.75-54.69 60.75m54.69-60.75 54.68 60.75m0-60.75 54.68 60.75m54.68-60.75-54.68 60.75m54.68-60.75 54.69 60.75m54.68-60.75-54.68 60.75m109.36-60.75-54.68 60.75m109.37-60.75-54.69 60.75"/>
    <path opacity=".36" d="m36.457 607.5-54.684 60.75m54.684-60.75 54.684 60.75m-.001-60.75 54.684 60.75m54.684-60.75-54.684 60.75m109.367-60.75-54.683 60.75m54.683-60.75 54.684 60.75m54.684-60.75-54.684 60.75m54.684-60.75 54.683 60.75m54.684-60.75-54.684 60.75m109.367-60.75-54.683 60.75m109.367-60.75-54.684 60.75m54.684-60.75 54.684 60.75m0-60.75 54.683 60.75m54.684-60.75-54.684 60.75m109.367-60.75-54.683 60.75m54.683-60.75 54.684 60.75m0-60.75 54.683 60.75m.001-60.75 54.683 60.75m0-60.75 54.682 60.75m0-60.75 54.69 60.75m0-60.75 54.68 60.75m54.68-60.75-54.68 60.75m109.36-60.75-54.68 60.75m109.37-60.75-54.69 60.75m54.69-60.75 54.68 60.75m54.68-60.75-54.68 60.75m54.68-60.75 54.69 60.75"/>
    <path opacity=".29" d="M36.457 668.25-18.227 729m54.684-60.75L91.141 729m-.001-60.75L145.825 729m54.683-60.75L145.824 729m54.684-60.75L255.191 729m54.684-60.75L255.191 729m109.368-60.75L309.875 729m54.684-60.75L419.242 729m54.684-60.75L419.242 729m109.367-60.75L473.926 729m109.367-60.75L528.609 729m109.368-60.75L583.293 729m109.367-60.75L637.977 729m109.367-60.75L692.66 729m109.367-60.75L747.344 729m109.367-60.75L802.027 729m109.367-60.75L856.711 729m109.367-60.75L911.395 729m109.365-60.75L966.078 729m54.682-60.75 54.69 60.75m54.68-60.75L1075.45 729m109.36-60.75L1130.13 729m54.68-60.75 54.68 60.75m0-60.75 54.69 60.75m0-60.75 54.68 60.75m0-60.75 54.68 60.75m54.69-60.75L1403.54 729"/>
    <path opacity=".23" d="m-18.227 729 54.684 60.75m0-60.75 54.684 60.75M91.14 729l54.684 60.75M200.508 729l-54.684 60.75M255.191 729l-54.683 60.75M309.875 729l-54.684 60.75M309.875 729l54.684 60.75m0-60.75 54.683 60.75m0-60.75 54.684 60.75M528.609 729l-54.683 60.75M583.293 729l-54.684 60.75M637.977 729l-54.684 60.75M692.66 729l-54.683 60.75M692.66 729l54.684 60.75m0-60.75 54.683 60.75m0-60.75 54.684 60.75m0-60.75 54.683 60.75M966.078 729l-54.683 60.75M1020.76 729l-54.682 60.75M1075.45 729l-54.69 60.75M1130.13 729l-54.68 60.75M1184.81 729l-54.68 60.75M1239.49 729l-54.68 60.75M1294.18 729l-54.69 60.75M1348.86 729l-54.68 60.75m54.68-60.75 54.68 60.75m0-60.75 54.69 60.75"/>
    <path opacity=".17" d="m-18.227 789.75 54.684 60.75m0-60.75 54.684 60.75m54.683-60.75L91.14 850.5m54.684-60.75 54.684 60.75m0-60.75 54.683 60.75m0-60.75 54.684 60.75m54.684-60.75-54.684 60.75m54.684-60.75 54.683 60.75m0-60.75 54.684 60.75m0-60.75 54.683 60.75m0-60.75 54.684 60.75m0-60.75 54.684 60.75m54.683-60.75-54.683 60.75m109.367-60.75L692.66 850.5m54.684-60.75 54.683 60.75m54.684-60.75-54.684 60.75m109.367-60.75-54.683 60.75m54.684-60.75 54.683 60.75m0-60.75 54.682 60.75m0-60.75 54.69 60.75m0-60.75 54.68 60.75m0-60.75 54.68 60.75m54.68-60.75-54.68 60.75m109.37-60.75-54.69 60.75m109.37-60.75-54.68 60.75m109.36-60.75-54.68 60.75m54.68-60.75 54.69 60.75"/>
    <path opacity=".1" d="m36.457 850.5-54.684 60.75m54.684-60.75 54.684 60.75m54.683-60.75L91.14 911.25m109.368-60.75-54.684 60.75m54.684-60.75 54.683 60.75m0-60.75 54.684 60.75m54.684-60.75-54.684 60.75m109.367-60.75-54.683 60.75m54.683-60.75 54.684 60.75m0-60.75 54.683 60.75m0-60.75 54.684 60.75m54.684-60.75-54.684 60.75m54.684-60.75 54.683 60.75m54.684-60.75-54.684 60.75m109.367-60.75-54.683 60.75m109.367-60.75-54.684 60.75m109.367-60.75-54.683 60.75m109.367-60.75-54.683 60.75m109.365-60.75-54.682 60.75m54.682-60.75 54.69 60.75m0-60.75 54.68 60.75m0-60.75 54.68 60.75m54.68-60.75-54.68 60.75m54.68-60.75 54.69 60.75m54.68-60.75-54.68 60.75m109.36-60.75-54.68 60.75m109.37-60.75-54.69 60.75" />
  </g>
  <defs>
    <clipPath id="a">
      <path fill="#fff" d="M0 0h1440v900H0z"/>
    </clipPath>
  </defs>
  <style>
      .animated-svg {
          width: 80%; /* Adjust size as needed */
          max-width: 900px;
          height: auto;
          display: block;
          margin: auto;
      }

      .animated-svg g path {
          stroke-dasharray: 1000;
          stroke-dashoffset: 1000;
          animation: draw 5s linear forwards;
      }

      @keyframes draw {
          to {
              stroke-dashoffset: 0;
          }
      }

      .animated-svg g path:nth-child(odd) {
          animation-delay: 0.1s;
      }

      .animated-svg g path:nth-child(even) {
          animation-delay: 0.4s;
      }
  </style>
</svg>