<svg width="47" height="28" viewBox="0 0 47 28" fill="none" xmlns="http://www.w3.org/2000/svg">
<path d="M46.3571 26.5643C44.6943 26.9872 43.6657 26.5829 42.7428 25.1972L36.18 16.1172L35.2314 14.86L27.5671 25.2272C26.6914 26.4743 25.7728 27.0172 24.1385 26.5758L33.9528 13.4015L24.8157 1.50148C26.3871 1.19576 27.4728 1.35148 28.4371 2.75862L35.2443 11.9515L42.1014 2.80862C42.98 1.56148 43.9243 1.08719 45.5014 1.54719L41.9585 6.24433L37.1585 12.4943C36.5871 13.2086 36.6657 13.6972 37.1914 14.3872L46.3571 26.5643ZM0.654251 13.1815L1.45711 9.2329C3.64282 1.41862 12.6 -1.82852 18.7771 3.00005C22.3871 5.84005 23.2843 9.85719 23.1057 14.3572H2.75711C2.45139 22.4572 8.28139 27.3458 15.7143 24.8515C18.3214 23.9758 19.8571 21.9343 20.6257 19.38C21.0157 18.1 21.6614 17.9 22.8643 18.2658C22.25 21.46 20.8643 24.1286 17.9357 25.7986C13.56 28.2986 7.31425 27.49 4.02854 24.0158C2.07139 22 1.26282 19.4458 0.899965 16.7143C0.842822 16.2629 0.728537 15.8329 0.642822 15.4C0.650441 14.661 0.654251 13.922 0.654251 13.1829V13.1815ZM2.79425 12.6386H21.1828C21.0628 6.78148 17.4157 2.62148 12.4314 2.58576C6.95997 2.5429 3.03139 6.60433 2.79425 12.6386Z" fill="#F9FAFB"/>
</svg>
