<svg width="47" height="46" viewBox="0 0 47 46" fill="none" xmlns="http://www.w3.org/2000/svg">
<g clip-path="url(#clip0_2035_1395)">
<path d="M28.669 16.6553L24.0976 20.9124L19.8538 12.3486L22.0461 7.42478C22.6004 6.44193 23.5071 6.4305 24.0614 7.42478L28.669 16.6553Z" fill="#FFA000"/>
<path d="M24.0972 20.9105L6.99438 36.8172L19.8534 12.3486L24.0972 20.9105Z" fill="#F57F17"/>
<path d="M33.6821 10.1447C34.5011 9.36375 35.3449 9.62851 35.5582 10.7352L40.004 36.6018L25.2573 45.4552C24.7392 45.7447 23.3678 45.8571 23.3678 45.8571C23.3678 45.8571 22.1201 45.7047 21.6421 45.4418L6.99634 36.8171L33.6821 10.1447Z" fill="#FFCA28"/>
<path d="M19.8535 12.3486L6.99634 36.8172L12.7259 1.05147C12.9411 -0.0571021 13.5697 -0.169483 14.1354 0.811469L19.8535 12.3486Z" fill="#FFA000"/>
</g>
<defs>
<clipPath id="clip0_2035_1395">
<rect width="45.7143" height="45.7143" fill="white" transform="translate(0.642822 0.142822)"/>
</clipPath>
</defs>
</svg>
