<svg width="47" height="46" viewBox="0 0 47 46" fill="none" xmlns="http://www.w3.org/2000/svg">
<g clip-path="url(#clip0_2035_1411)">
<path d="M23.4971 0.142822C10.8771 0.142822 0.642835 10.4171 0.642835 23.0914C0.637679 27.9015 2.1443 32.5917 4.94978 36.4989C7.75526 40.4062 11.7177 43.333 16.2771 44.8657C17.42 45.0771 17.8371 44.3685 17.8371 43.76C17.8371 43.2143 17.8171 41.7714 17.8057 39.8571C11.4486 41.2428 10.1057 36.78 10.1057 36.78C9.06855 34.1285 7.56855 33.4228 7.56855 33.4228C5.49141 32 7.72284 32.0285 7.72284 32.0285C10.0171 32.1914 11.2228 34.3943 11.2228 34.3943C13.2628 37.9 16.5743 36.8885 17.8771 36.3C18.0828 34.8171 18.6743 33.8057 19.3286 33.2314C14.2543 32.6514 8.91712 30.6828 8.91712 21.8914C8.91712 19.3857 9.80855 17.3371 11.2714 15.7314C11.0343 15.1514 10.2514 12.8171 11.4943 9.65997C11.4943 9.65997 13.4143 9.04282 17.78 12.0114C19.645 11.5017 21.5695 11.2423 23.5028 11.24C25.4363 11.2438 27.3607 11.5042 29.2257 12.0143C33.5886 9.04568 35.5057 9.66282 35.5057 9.66282C36.7514 12.8228 35.9686 15.1543 35.7343 15.7343C37.2 17.34 38.0828 19.3885 38.0828 21.8943C38.0828 30.7085 32.74 32.6485 27.6486 33.2171C28.4685 33.9257 29.2 35.3257 29.2 37.4657C29.2 40.5343 29.1714 43.0085 29.1714 43.76C29.1714 44.3743 29.5828 45.0885 30.7428 44.8628C35.2978 43.3265 39.2553 40.3986 42.0569 36.4923C44.8585 32.5859 46.3627 27.8985 46.3571 23.0914C46.3571 10.4171 36.1228 0.142822 23.4971 0.142822Z" fill="white"/>
</g>
<defs>
<clipPath id="clip0_2035_1411">
<rect width="45.7143" height="45.7143" fill="white" transform="translate(0.642822 0.142822)"/>
</clipPath>
</defs>
</svg>
