<svg width="47" height="46" viewBox="0 0 47 46" fill="none" xmlns="http://www.w3.org/2000/svg">
<g clip-path="url(#clip0_2035_1352)">
<path d="M7.44065 40.8129L3.86743 0.736084H43.1303L39.5532 40.8068L23.4749 45.2639L7.44065 40.8129Z" fill="#E44D26"/>
<path d="M23.4983 41.8572L36.4904 38.2551L39.5472 4.01294H23.4983V41.8572Z" fill="#F16529"/>
<path d="M23.4994 18.8768H16.9951L16.5459 13.8432H23.4994V8.92822H11.1741L11.2919 10.2468L12.4998 23.7922H23.4994V18.8768ZM23.4994 31.6422L23.4776 31.6482L18.0037 30.1697L17.6541 26.25H12.7194L13.408 33.9675L23.4769 36.7625L23.4994 36.7564V31.6422Z" fill="#EBEBEB"/>
<path d="M23.4827 18.8768V23.7922H29.5352L28.9648 30.1668L23.4827 31.6464V36.7604L33.5595 33.9675L33.6334 33.1372L34.7884 20.1968L34.908 18.8768H33.5837H23.4827ZM23.4827 8.92822V13.8432H35.3555L35.4541 12.7389L35.6784 10.2468L35.7959 8.92822H23.4827Z" fill="white"/>
</g>
<defs>
<clipPath id="clip0_2035_1352">
<rect width="45.7143" height="45.7143" fill="white" transform="translate(0.642822 0.142822)"/>
</clipPath>
</defs>
</svg>
