<svg width="47" height="46" viewBox="0 0 47 46" fill="none" xmlns="http://www.w3.org/2000/svg">
<path d="M0.642822 45.8571V0.142822H46.3571V45.8571H0.642822Z" fill="#FFD600"/>
<path d="M30.5305 34.3612C31.4093 35.7885 32.3642 37.1561 34.387 37.1561C36.0861 37.1561 36.9775 36.3116 36.9775 35.1434C36.9775 33.7453 36.0556 33.2488 34.1864 32.4348L33.1616 31.998C30.2042 30.7434 28.2372 29.1713 28.2372 25.8507C28.2372 22.7904 30.58 20.4615 34.241 20.4615C36.848 20.4615 38.721 21.3643 40.0721 23.7288L36.8797 25.7694C36.1775 24.5148 35.4181 24.0208 34.241 24.0208C33.0397 24.0208 32.2791 24.7789 32.2791 25.7694C32.2791 26.9935 33.041 27.4888 34.7997 28.2469L35.8245 28.6837C39.3102 30.1681 41.2759 31.6843 41.2759 35.0926C41.2759 38.765 38.3756 40.7777 34.4823 40.7777C30.674 40.7777 28.5115 38.8666 27.3077 36.5008L30.5305 34.3612ZM15.8181 34.4653C16.4607 35.6158 17.4372 36.5008 18.8416 36.5008C20.1851 36.5008 20.9585 35.97 20.9585 33.9066V20.4602H25.1908V34.5567C25.1908 38.8323 22.7108 40.7777 19.0893 40.7777C15.8169 40.7777 13.455 38.5605 12.4924 36.5008L15.8181 34.4653Z" fill="#000001"/>
</svg>
