<svg width="23" height="48" viewBox="0 0 23 48" fill="none" xmlns="http://www.w3.org/2000/svg">
<path d="M15.6087 6.09934C13.6665 3.80518 11.9941 1.47516 11.6524 0.99124C11.6164 0.955394 11.5625 0.955394 11.5265 0.99124C11.1848 1.47516 9.51241 3.80518 7.57025 6.09934C-9.09996 27.2665 10.1958 41.5513 10.1958 41.5513L10.3576 41.6588C10.5015 43.8635 10.8611 47.0358 10.8611 47.0358H11.5805H12.2998C12.2998 47.0358 12.6595 43.8813 12.8033 41.6588L12.9651 41.5335C12.9831 41.5335 32.2789 27.2665 15.6087 6.09934ZM11.5805 41.2286C11.5805 41.2286 10.7173 40.4938 10.4835 40.1174V40.0817L11.5265 17.0324C11.5265 16.9607 11.6344 16.9607 11.6344 17.0324L12.6774 40.0817V40.1174C12.4436 40.4938 11.5805 41.2286 11.5805 41.2286Z" fill="#00684A"/>
</svg>
