<svg width="41" height="48" viewBox="0 0 41 48" fill="none" xmlns="http://www.w3.org/2000/svg">
<g clip-path="url(#clip0_2035_1374)">
<path d="M20.5714 47.1332C19.9512 47.1332 19.3723 46.9646 18.8347 46.6695L13.3353 43.3392C12.5084 42.8754 12.9218 42.7068 13.1699 42.6225C14.2864 42.2431 14.4931 42.1588 15.6509 41.4843C15.7749 41.4 15.9403 41.4421 16.0643 41.5265L20.2819 44.098C20.4474 44.1823 20.6541 44.1823 20.7781 44.098L37.2763 34.3599C37.4417 34.2756 37.5244 34.1069 37.5244 33.8962V14.4621C37.5244 14.2513 37.4417 14.0827 37.2763 13.9984L20.7781 4.30242C20.6127 4.21812 20.4059 4.21812 20.2819 4.30242L3.78372 13.9984C3.61832 14.0827 3.53562 14.2935 3.53562 14.4621V33.8962C3.53562 34.0648 3.61832 34.2756 3.78372 34.3599L8.29075 37.0157C10.7303 38.2804 12.2602 36.805 12.2602 35.3295V16.1483C12.2602 15.8954 12.467 15.6425 12.7564 15.6425H14.8652C15.1133 15.6425 15.3614 15.8533 15.3614 16.1483V35.3295C15.3614 38.6598 13.5834 40.599 10.4822 40.599C9.53122 40.599 8.78695 40.599 6.67812 39.5451L2.33651 37.0157C1.26144 36.3834 0.599854 35.203 0.599854 33.9383V14.5042C0.599854 13.2396 1.26144 12.0592 2.33651 11.4268L18.8347 1.68873C19.8685 1.09855 21.2743 1.09855 22.3081 1.68873L38.8062 11.4268C39.8813 12.0592 40.5429 13.2396 40.5429 14.5042V33.9383C40.5429 35.203 39.8813 36.3834 38.8062 37.0157L22.3081 46.7538C21.8119 46.9646 21.1916 47.1332 20.5714 47.1332Z" fill="#5FA04E"/>
<path d="M25.6975 33.7696C18.4614 33.7696 16.9729 30.3971 16.9729 27.5305C16.9729 27.2776 17.1796 27.0247 17.469 27.0247H19.6192C19.8673 27.0247 20.0741 27.1933 20.0741 27.4462C20.4048 29.6805 21.3559 30.7766 25.7389 30.7766C29.2121 30.7766 30.7007 29.9756 30.7007 28.0785C30.7007 26.9825 30.2872 26.1815 24.8705 25.6335C20.3635 25.1697 17.5518 24.158 17.5518 20.4904C17.5518 17.0757 20.3635 15.0522 25.0773 15.0522C30.3699 15.0522 32.9749 16.9071 33.3057 20.9541C33.3057 21.0806 33.2644 21.2071 33.1817 21.3336C33.099 21.4178 32.9749 21.5022 32.8508 21.5022H30.6594C30.4526 21.5022 30.2459 21.3336 30.2045 21.1227C29.7083 18.8041 28.4265 18.0453 25.0359 18.0453C21.2318 18.0453 20.777 19.3944 20.777 20.4061C20.777 21.6286 21.3145 22.0081 26.4418 22.6825C31.5277 23.357 33.9259 24.3266 33.9259 27.9521C33.9259 31.6618 30.9075 33.7696 25.6975 33.7696Z" fill="#5FA04E"/>
</g>
<defs>
<clipPath id="clip0_2035_1374">
<rect width="40.7143" height="46.2662" fill="white" transform="translate(0.142822 0.866943)"/>
</clipPath>
</defs>
</svg>
