<svg width="75" height="46" viewBox="0 0 75 46" fill="none" xmlns="http://www.w3.org/2000/svg">
<g clip-path="url(#clip0_2035_1420)">
<mask id="mask0_2035_1420" style="mask-type:luminance" maskUnits="userSpaceOnUse" x="0" y="0" width="75" height="46">
<path d="M0.0993652 0.143066H74.9046V45.0262H0.0993652V0.143066Z" fill="white"/>
</mask>
<g mask="url(#mask0_2035_1420)">
<path fill-rule="evenodd" clip-rule="evenodd" d="M37.502 0.143066C27.5279 0.143066 21.2942 5.13008 18.8007 15.1041C22.5409 10.1171 26.9046 8.24696 31.8916 9.49372C34.7369 10.2044 36.7705 12.2698 39.0216 14.5541C42.6885 18.2764 46.933 22.5846 56.2033 22.5846C66.1773 22.5846 72.411 17.5976 74.9046 7.62359C71.1643 12.6106 66.8007 14.4807 61.8136 13.234C58.9683 12.5233 56.9347 10.4579 54.6836 8.17354C51.0168 4.45129 46.7723 0.143066 37.502 0.143066ZM18.8007 22.5846C8.82664 22.5846 2.59287 27.5716 0.0993652 37.5457C3.83962 32.5587 8.20326 30.6885 13.1903 31.9353C16.0356 32.6473 18.0692 34.7114 20.3203 36.9957C23.9872 40.718 28.2317 45.0262 37.502 45.0262C47.476 45.0262 53.7098 40.0392 56.2033 30.0651C52.463 35.0522 48.0994 36.9223 43.1124 35.6755C40.267 34.9649 38.2334 32.8994 35.9823 30.6151C32.3155 26.8928 28.071 22.5846 18.8007 22.5846Z" fill="#38BDF8"/>
</g>
</g>
<defs>
<clipPath id="clip0_2035_1420">
<rect width="74.8052" height="45.7143" fill="white" transform="translate(0.0974121 0.143066)"/>
</clipPath>
</defs>
</svg>
