<svg width="47" height="46" viewBox="0 0 47 46" fill="none" xmlns="http://www.w3.org/2000/svg">
<g clip-path="url(#clip0_2035_1369)">
<path d="M44.2143 0.142822H2.78568C1.60221 0.142822 0.642822 1.10221 0.642822 2.28568V43.7143C0.642822 44.8977 1.60221 45.8571 2.78568 45.8571H44.2143C45.3977 45.8571 46.3571 44.8977 46.3571 43.7143V2.28568C46.3571 1.10221 45.3977 0.142822 44.2143 0.142822Z" fill="#3178C6"/>
<path fill-rule="evenodd" clip-rule="evenodd" d="M27.1642 35.667V40.6763C27.9758 41.0934 28.9356 41.4066 30.0437 41.6152C31.1518 41.8241 32.3197 41.9284 33.5474 41.9284C34.7439 41.9284 35.8806 41.8138 36.9573 41.5841C38.0345 41.3545 38.9784 40.9763 39.7902 40.4491C40.6016 39.922 41.2441 39.2334 41.7177 38.3827C42.1909 37.5323 42.4277 36.4809 42.4277 35.2286C42.4277 34.3208 42.2923 33.525 42.022 32.8415C41.7513 32.1579 41.3613 31.5501 40.8513 31.0178C40.3416 30.4856 39.7302 30.0082 39.0177 29.5855C38.3048 29.1629 37.5013 28.7637 36.6063 28.388C35.9508 28.1167 35.363 27.8532 34.8428 27.5975C34.3225 27.3419 33.8803 27.081 33.5162 26.8149C33.152 26.5487 32.8711 26.267 32.6734 25.9695C32.4757 25.6721 32.3769 25.3356 32.3769 24.9599C32.3769 24.6155 32.4653 24.305 32.6422 24.0285C32.8191 23.752 33.0688 23.5145 33.3913 23.3163C33.7139 23.118 34.1092 22.9641 34.5775 22.8545C35.0457 22.7449 35.5659 22.6901 36.1381 22.6901C36.5545 22.6901 36.9938 22.7214 37.457 22.784C37.9198 22.8466 38.3856 22.9432 38.8538 23.0736C39.322 23.2041 39.777 23.3684 40.2195 23.5667C40.6616 23.765 41.0698 23.9946 41.4445 24.2555V19.5751C40.6848 19.2829 39.8552 19.0663 38.9552 18.9254C38.0552 18.7845 37.0227 18.7141 35.8572 18.7141C34.6711 18.7141 33.5474 18.8419 32.4861 19.0976C31.4249 19.3533 30.4911 19.7525 29.6847 20.2951C28.8783 20.8378 28.2411 21.5291 27.7729 22.3692C27.3047 23.2093 27.0706 24.2137 27.0706 25.3825C27.0706 26.8749 27.4997 28.148 28.3581 29.202C29.2165 30.256 30.5197 31.1483 32.2676 31.8788C32.9543 32.1605 33.5942 32.4371 34.1873 32.7084C34.7803 32.9798 35.2928 33.2615 35.7246 33.5537C36.1563 33.8459 36.497 34.1642 36.7466 34.5086C36.9966 34.853 37.1213 35.2443 37.1213 35.6826C37.1213 36.0063 37.0434 36.3063 36.8873 36.5827C36.7313 36.8591 36.4945 37.0991 36.1772 37.3027C35.8598 37.5063 35.4645 37.6655 34.991 37.7802C34.5176 37.8948 33.9636 37.9523 33.3289 37.9523C32.2468 37.9523 31.1752 37.762 30.1139 37.3809C29.0526 37.0002 28.0694 36.4288 27.1642 35.667ZM18.7501 23.1978H25.2848V19.0713H7.07056V23.1978H13.5734V41.5713H18.7501V23.1978Z" fill="white"/>
</g>
<defs>
<clipPath id="clip0_2035_1369">
<rect width="45.7143" height="45.7143" fill="white" transform="translate(0.642822 0.142822)"/>
</clipPath>
</defs>
</svg>
